<svg width="512" height="512" viewBox="0 0 512 512" fill="none" xmlns="http://www.w3.org/2000/svg" xmlns:xlink="http://www.w3.org/1999/xlink" class=""><rect id="r4" width="512" height="512" x="0" y="0" rx="128" fill="url(#r5)" stroke="#FFFFFF" stroke-width="0" stroke-opacity="100%" paint-order="stroke"></rect><clipPath id="clip"><use xlink:href="#r4"></use></clipPath><defs><linearGradient id="r5" gradientUnits="userSpaceOnUse" gradientTransform="rotate(180)" style="transform-origin: center center;"><stop stop-color="#68AEFF"></stop><stop offset="1" stop-color="#003EB7"></stop></linearGradient><radialGradient id="r6" cx="0" cy="0" r="1" gradientUnits="userSpaceOnUse" gradientTransform="translate(256) rotate(90) scale(512)"><stop stop-color="white"></stop><stop offset="1" stop-color="white" stop-opacity="0"></stop></radialGradient></defs><svg xmlns="http://www.w3.org/2000/svg" fill="none" viewBox="0 0 16 16" width="352" height="352" x="80" y="80" alignment-baseline="middle" style="color: rgb(255, 255, 255);"><path fill="currentColor" fill-rule="evenodd" d="M8.75 1.75a.75.75 0 1 0-1.5 0v.5a.75.75 0 0 0 1.5 0v-.5Zm4.2 2.36a.75.75 0 0 0-1.061-1.06l-.354.354a.75.75 0 1 0 1.06 1.06l.354-.353ZM4.11 3.05a.75.75 0 1 0-1.06 1.061l.353.354a.75.75 0 0 0 1.06-1.06L4.11 3.05Zm5.723 2.458a1.735 1.735 0 0 0-2.45-.005l-6.155 5.958a.75.75 0 1 0 1.043 1.078l4.268-4.13L7.592 9.46 3.46 13.728a.75.75 0 1 0 1.078 1.044l5.958-6.155a1.735 1.735 0 0 0-.005-2.45l-.66-.659ZM14.25 7.25h-.5a.75.75 0 0 0 0 1.5h.5a.75.75 0 0 0 0-1.5Zm-1.653 4.285a.75.75 0 0 0-1.061 1.061l.354.354a.75.75 0 0 0 1.06-1.061l-.353-.354Z" clip-rule="evenodd"></path></svg></svg>